ffmpeg started on 2026-01-13 at 11:46:18
Report written to "D:\Convert\FFMetrics\reports\psnr_report-6.txt"
Log level: 32
Command line:
ffmpeg -hide_banner -nostdin -r 24000/1001 -i "F:\\Convert\\files\\[DC] Make Heroine ga Oosugiru - 07_Telegram_HEVC(83).mkv" -r 24000/1001 -i "F:\\Convert\\files\\[DC] Make Heroine ga Oosugiru - 07_Telegram.mp4" -lavfi "[0:v]settb=AVTB,setpts=PTS-STARTPTS,format=pix_fmts=yuv420p10le,fps=24000/1001,scale=1920:1080:flags=lanczos:param0=3:out_range=limited:out_color_matrix=bt709:out_chroma_loc=left,setsar=1/1,setdar=(1920/1080)*(1/1),colorspace=format=yuv420p10:range=tv:primaries=bt709:trc=bt709:space=bt709:fast=0[main];[1:v]settb=AVTB,setpts=PTS-STARTPTS,format=pix_fmts=yuv420p,fps=24000/1001,scale=1920:1080:flags=lanczos:param0=3:out_range=limited:out_color_matrix=bt709:out_chroma_loc=left,setsar=1.000,setdar=1.778,colorspace=format=yuv420p:range=tv:primaries=bt709:trc=bt709:space=bt709:fast=0[ref];[main][ref]psnr=eof_action=endall:stats_file='D\\:/Convert/FFMetrics/logs/psnr_logfile-6.txt'" -f null -
Input #0, matroska,webm, from 'F:\Convert\files\[DC] Make Heroine ga Oosugiru - 07_Telegram_HEVC(83).mkv':
  Metadata:
    COMPATIBLE_BRANDS: isomiso2avc1mp41
    MAJOR_BRAND     : isom
    MINOR_VERSION   : 512
    ENCODER         : Lavf61.7.100
  Duration: 00:24:06.79, start: -0.021000, bitrate: 927 kb/s
  Stream #0:0: Video: hevc (Main 10), yuv420p10le(tv, bt709, progressive), 1920x1080 [SAR 1:1 DAR 16:9], 23.98 fps, 23.98 tbr, 1k tbn (default)
      Metadata:
        HANDLER_NAME    : VideoHandler
        VENDOR_ID       : [0][0][0][0]
        ENCODER         : Lavc61.19.100 libx265
        BPS             : 730445
        DURATION        : 00:24:06.569708333
        NUMBER_OF_FRAMES: 34683
        NUMBER_OF_BYTES : 132080024
        _STATISTICS_WRITING_APP: mkvpropedit v94.0 ('Initiate') 64-bit
        _STATISTICS_WRITING_DATE_UTC: 2026-01-11 16:27:29
        _STATISTICS_TAGS: BPS DURATION NUMBER_OF_FRAMES NUMBER_OF_BYTES
  Stream #0:1: Audio: aac (LC), 48000 Hz, stereo, fltp (default)
      Metadata:
        HANDLER_NAME    : SoundHandler
        VENDOR_ID       : [0][0][0][0]
        ENCODER         : Lavc61.19.100 aac
        BPS             : 193194
        DURATION        : 00:24:06.784000000
        NUMBER_OF_FRAMES: 67819
        NUMBER_OF_BYTES : 34938755
        _STATISTICS_WRITING_APP: mkvpropedit v94.0 ('Initiate') 64-bit
        _STATISTICS_WRITING_DATE_UTC: 2026-01-11 16:27:29
        _STATISTICS_TAGS: BPS DURATION NUMBER_OF_FRAMES NUMBER_OF_BYTES
Input #1, mov,mp4,m4a,3gp,3g2,mj2, from 'F:\Convert\files\[DC] Make Heroine ga Oosugiru - 07_Telegram.mp4':
  Metadata:
    major_brand     : isom
    minor_version   : 512
    compatible_brands: isomiso2avc1mp41
    encoder         : Lavf60.16.100
  Duration: 00:24:06.74, start: 0.000000, bitrate: 3764 kb/s
  Stream #1:0[0x1](und): Video: h264 (High) (avc1 / 0x31637661), yuv420p(tv, bt709, progressive), 1920x1080 [SAR 1:1 DAR 16:9], 3616 kb/s, 23.98 fps, 23.98 tbr, 24k tbn (default)
      Metadata:
        handler_name    : VideoHandler
        vendor_id       : [0][0][0][0]
        encoder         : Lavc60.31.102 h264_qsv
  Stream #1:1[0x2](und): Audio: aac (HE-AACv2) (mp4a / 0x6134706D), 48000 Hz, stereo, fltp, 144 kb/s (default)
      Metadata:
        handler_name    : SoundHandler
        vendor_id       : [0][0][0][0]
Stream mapping:
  Stream #0:0 (hevc) -> settb:default
  Stream #1:0 (h264) -> settb:default
  psnr:default -> Stream #0:0 (wrapped_avframe)
  Stream #0:1 -> #0:1 (aac (native) -> pcm_s16le (native))
Output #0, null, to 'pipe:':
  Metadata:
    COMPATIBLE_BRANDS: isomiso2avc1mp41
    MAJOR_BRAND     : isom
    MINOR_VERSION   : 512
    encoder         : Lavf61.7.100
  Stream #0:0: Video: wrapped_avframe, yuv420p10le(tv, bt709, progressive), 1920x1080 [SAR 1:1 DAR 16:9], q=2-31, 200 kb/s, 23.98 fps, 23.98 tbn
      Metadata:
        encoder         : Lavc61.19.100 wrapped_avframe
  Stream #0:1: Audio: pcm_s16le, 48000 Hz, stereo, s16, 1536 kb/s (default)
      Metadata:
        HANDLER_NAME    : SoundHandler
        VENDOR_ID       : [0][0][0][0]
        _STATISTICS_TAGS: BPS DURATION NUMBER_OF_FRAMES NUMBER_OF_BYTES
        BPS             : 193194
        DURATION        : 00:24:06.784000000
        NUMBER_OF_FRAMES: 67819
        NUMBER_OF_BYTES : 34938755
        _STATISTICS_WRITING_APP: mkvpropedit v94.0 ('Initiate') 64-bit
        _STATISTICS_WRITING_DATE_UTC: 2026-01-11 16:27:29
        encoder         : Lavc61.19.100 pcm_s16le
frame=  148 fps=0.0 q=-0.0 size=N/A time=00:00:06.17 bitrate=N/A speed=12.2x    frame=  325 fps=315 q=-0.0 size=N/A time=00:00:13.55 bitrate=N/A speed=13.1x    frame=  518 fps=335 q=-0.0 size=N/A time=00:00:21.60 bitrate=N/A speed=  14x    frame=  713 fps=347 q=-0.0 size=N/A time=00:00:29.73 bitrate=N/A speed=14.5x    frame=  893 fps=348 q=-0.0 size=N/A time=00:00:37.24 bitrate=N/A speed=14.5x    frame= 1070 fps=346 q=-0.0 size=N/A time=00:00:44.62 bitrate=N/A speed=14.4x    frame= 1250 fps=347 q=-0.0 size=N/A time=00:00:52.13 bitrate=N/A speed=14.5x    frame= 1406 fps=341 q=-0.0 size=N/A time=00:00:58.64 bitrate=N/A speed=14.2x    frame= 1547 fps=334 q=-0.0 size=N/A time=00:01:04.52 bitrate=N/A speed=13.9x    frame= 1727 fps=335 q=-0.0 size=N/A time=00:01:12.03 bitrate=N/A speed=  14x    frame= 1910 fps=337 q=-0.0 size=N/A time=00:01:19.66 bitrate=N/A speed=  14x    frame= 2074 fps=336 q=-0.0 size=N/A time=00:01:26.50 bitrate=N/A speed=  14x    frame= 2237 fps=334 q=-0.0 size=N/A time=00:01:33.30 bitrate=N/A speed=13.9x    frame= 2416 fps=335 q=-0.0 size=N/A time=00:01:40.76 bitrate=N/A speed=  14x    frame= 2580 fps=334 q=-0.0 size=N/A time=00:01:47.60 bitrate=N/A speed=13.9x    frame= 2749 fps=333 q=-0.0 size=N/A time=00:01:54.65 bitrate=N/A speed=13.9x    frame= 2929 fps=335 q=-0.0 size=N/A time=00:02:02.16 bitrate=N/A speed=  14x    frame= 3114 fps=335 q=-0.0 size=N/A time=00:02:09.87 bitrate=N/A speed=  14x    frame= 3297 fps=337 q=-0.0 size=N/A time=00:02:17.51 bitrate=N/A speed=  14x    frame= 3475 fps=337 q=-0.0 size=N/A time=00:02:24.93 bitrate=N/A speed=14.1x    frame= 3665 fps=338 q=-0.0 size=N/A time=00:02:32.86 bitrate=N/A speed=14.1x    frame= 3819 fps=336 q=-0.0 size=N/A time=00:02:39.28 bitrate=N/A speed=  14x    frame= 4004 fps=337 q=-0.0 size=N/A time=00:02:47.00 bitrate=N/A speed=14.1x    frame= 4190 fps=338 q=-0.0 size=N/A time=00:02:54.75 bitrate=N/A speed=14.1x    frame= 4365 fps=338 q=-0.0 size=N/A time=00:03:02.05 bitrate=N/A speed=14.1x    frame= 4554 fps=339 q=-0.0 size=N/A time=00:03:09.93 bitrate=N/A speed=14.1x    frame= 4739 fps=340 q=-0.0 size=N/A time=00:03:17.65 bitrate=N/A speed=14.2x    frame= 4918 fps=340 q=-0.0 size=N/A time=00:03:25.12 bitrate=N/A speed=14.2x    frame= 5118 fps=342 q=-0.0 size=N/A time=00:03:33.46 bitrate=N/A speed=14.3x    frame= 5303 fps=343 q=-0.0 size=N/A time=00:03:41.17 bitrate=N/A speed=14.3x    frame= 5493 fps=343 q=-0.0 size=N/A time=00:03:49.10 bitrate=N/A speed=14.3x    frame= 5688 fps=345 q=-0.0 size=N/A time=00:03:57.23 bitrate=N/A speed=14.4x    frame= 5878 fps=345 q=-0.0 size=N/A time=00:04:05.16 bitrate=N/A speed=14.4x    frame= 6077 fps=346 q=-0.0 size=N/A time=00:04:13.46 bitrate=N/A speed=14.4x    frame= 6247 fps=346 q=-0.0 size=N/A time=00:04:20.55 bitrate=N/A speed=14.4x    frame= 6398 fps=345 q=-0.0 size=N/A time=00:04:26.84 bitrate=N/A speed=14.4x    frame= 6589 fps=345 q=-0.0 size=N/A time=00:04:34.81 bitrate=N/A speed=14.4x    frame= 6787 fps=346 q=-0.0 size=N/A time=00:04:43.07 bitrate=N/A speed=14.4x    frame= 6985 fps=347 q=-0.0 size=N/A time=00:04:51.33 bitrate=N/A speed=14.5x    frame= 7170 fps=348 q=-0.0 size=N/A time=00:04:59.04 bitrate=N/A speed=14.5x    frame= 7363 fps=348 q=-0.0 size=N/A time=00:05:07.09 bitrate=N/A speed=14.5x    frame= 7556 fps=349 q=-0.0 size=N/A time=00:05:15.14 bitrate=N/A speed=14.5x    frame= 7696 fps=347 q=-0.0 size=N/A time=00:05:20.98 bitrate=N/A speed=14.5x    frame= 7826 fps=345 q=-0.0 size=N/A time=00:05:26.40 bitrate=N/A speed=14.4x    frame= 8013 fps=345 q=-0.0 size=N/A time=00:05:34.20 bitrate=N/A speed=14.4x    frame= 8196 fps=345 q=-0.0 size=N/A time=00:05:41.84 bitrate=N/A speed=14.4x    frame= 8389 fps=346 q=-0.0 size=N/A time=00:05:49.89 bitrate=N/A speed=14.4x    frame= 8590 fps=347 q=-0.0 size=N/A time=00:05:58.27 bitrate=N/A speed=14.5x    frame= 8784 fps=348 q=-0.0 size=N/A time=00:06:06.36 bitrate=N/A speed=14.5x    frame= 8969 fps=348 q=-0.0 size=N/A time=00:06:14.08 bitrate=N/A speed=14.5x    frame= 9168 fps=348 q=-0.0 size=N/A time=00:06:22.38 bitrate=N/A speed=14.5x    frame= 9359 fps=349 q=-0.0 size=N/A time=00:06:30.34 bitrate=N/A speed=14.6x    frame= 9555 fps=350 q=-0.0 size=N/A time=00:06:38.52 bitrate=N/A speed=14.6x    frame= 9754 fps=350 q=-0.0 size=N/A time=00:06:46.82 bitrate=N/A speed=14.6x    frame= 9941 fps=350 q=-0.0 size=N/A time=00:06:54.62 bitrate=N/A speed=14.6x    frame=10145 fps=351 q=-0.0 size=N/A time=00:07:03.13 bitrate=N/A speed=14.6x    frame=10275 fps=349 q=-0.0 size=N/A time=00:07:08.55 bitrate=N/A speed=14.6x    frame=10469 fps=350 q=-0.0 size=N/A time=00:07:16.64 bitrate=N/A speed=14.6x    frame=10671 fps=351 q=-0.0 size=N/A time=00:07:25.06 bitrate=N/A speed=14.6x    frame=10860 fps=351 q=-0.0 size=N/A time=00:07:32.95 bitrate=N/A speed=14.6x    frame=11056 fps=351 q=-0.0 size=N/A time=00:07:41.12 bitrate=N/A speed=14.7x    frame=11246 fps=352 q=-0.0 size=N/A time=00:07:49.05 bitrate=N/A speed=14.7x    frame=11434 fps=352 q=-0.0 size=N/A time=00:07:56.89 bitrate=N/A speed=14.7x    frame=11627 fps=352 q=-0.0 size=N/A time=00:08:04.94 bitrate=N/A speed=14.7x    frame=11823 fps=353 q=-0.0 size=N/A time=00:08:13.11 bitrate=N/A speed=14.7x    frame=12023 fps=353 q=-0.0 size=N/A time=00:08:21.45 bitrate=N/A speed=14.7x    frame=12222 fps=354 q=-0.0 size=N/A time=00:08:29.75 bitrate=N/A speed=14.7x    frame=12420 fps=354 q=-0.0 size=N/A time=00:08:38.01 bitrate=N/A speed=14.8x    frame=12614 fps=354 q=-0.0 size=N/A time=00:08:46.10 bitrate=N/A speed=14.8x    frame=12783 fps=354 q=-0.0 size=N/A time=00:08:53.15 bitrate=N/A speed=14.8x    frame=12946 fps=353 q=-0.0 size=N/A time=00:08:59.95 bitrate=N/A speed=14.7x    frame=13140 fps=354 q=-0.0 size=N/A time=00:09:08.04 bitrate=N/A speed=14.8x    frame=13334 fps=354 q=-0.0 size=N/A time=00:09:16.13 bitrate=N/A speed=14.8x    frame=13532 fps=354 q=-0.0 size=N/A time=00:09:24.39 bitrate=N/A speed=14.8x    frame=13727 fps=355 q=-0.0 size=N/A time=00:09:32.53 bitrate=N/A speed=14.8x    frame=13916 fps=355 q=-0.0 size=N/A time=00:09:40.41 bitrate=N/A speed=14.8x    frame=14104 fps=355 q=-0.0 size=N/A time=00:09:48.25 bitrate=N/A speed=14.8x    frame=14312 fps=355 q=-0.0 size=N/A time=00:09:56.92 bitrate=N/A speed=14.8x    frame=14499 fps=356 q=-0.0 size=N/A time=00:10:04.72 bitrate=N/A speed=14.8x    frame=14687 fps=356 q=-0.0 size=N/A time=00:10:12.57 bitrate=N/A speed=14.8x    frame=14880 fps=356 q=-0.0 size=N/A time=00:10:20.62 bitrate=N/A speed=14.8x    frame=15069 fps=356 q=-0.0 size=N/A time=00:10:28.50 bitrate=N/A speed=14.9x    frame=15247 fps=356 q=-0.0 size=N/A time=00:10:35.92 bitrate=N/A speed=14.8x    frame=15389 fps=355 q=-0.0 size=N/A time=00:10:41.84 bitrate=N/A speed=14.8x    frame=15583 fps=355 q=-0.0 size=N/A time=00:10:49.94 bitrate=N/A speed=14.8x    frame=15783 fps=355 q=-0.0 size=N/A time=00:10:58.28 bitrate=N/A speed=14.8x    frame=15983 fps=356 q=-0.0 size=N/A time=00:11:06.62 bitrate=N/A speed=14.8x    frame=16176 fps=356 q=-0.0 size=N/A time=00:11:14.67 bitrate=N/A speed=14.9x    frame=16374 fps=356 q=-0.0 size=N/A time=00:11:22.93 bitrate=N/A speed=14.9x    frame=16557 fps=356 q=-0.0 size=N/A time=00:11:30.56 bitrate=N/A speed=14.9x    frame=16750 fps=357 q=-0.0 size=N/A time=00:11:38.61 bitrate=N/A speed=14.9x    frame=16943 fps=357 q=-0.0 size=N/A time=00:11:46.66 bitrate=N/A speed=14.9x    frame=17139 fps=357 q=-0.0 size=N/A time=00:11:54.83 bitrate=N/A speed=14.9x    frame=17331 fps=357 q=-0.0 size=N/A time=00:12:02.84 bitrate=N/A speed=14.9x    frame=17519 fps=357 q=-0.0 size=N/A time=00:12:10.68 bitrate=N/A speed=14.9x    frame=17710 fps=357 q=-0.0 size=N/A time=00:12:18.65 bitrate=N/A speed=14.9x    frame=17881 fps=357 q=-0.0 size=N/A time=00:12:25.78 bitrate=N/A speed=14.9x    frame=18030 fps=356 q=-0.0 size=N/A time=00:12:32.00 bitrate=N/A speed=14.9x    frame=18223 fps=357 q=-0.0 size=N/A time=00:12:40.05 bitrate=N/A speed=14.9x    frame=18404 fps=357 q=-0.0 size=N/A time=00:12:47.60 bitrate=N/A speed=14.9x    frame=18602 fps=357 q=-0.0 size=N/A time=00:12:55.85 bitrate=N/A speed=14.9x    frame=18801 fps=357 q=-0.0 size=N/A time=00:13:04.15 bitrate=N/A speed=14.9x    frame=18988 fps=357 q=-0.0 size=N/A time=00:13:11.95 bitrate=N/A speed=14.9x    frame=19186 fps=357 q=-0.0 size=N/A time=00:13:20.21 bitrate=N/A speed=14.9x    frame=19383 fps=358 q=-0.0 size=N/A time=00:13:28.43 bitrate=N/A speed=14.9x    frame=19564 fps=358 q=-0.0 size=N/A time=00:13:35.98 bitrate=N/A speed=14.9x    frame=19754 fps=358 q=-0.0 size=N/A time=00:13:43.90 bitrate=N/A speed=14.9x    frame=19944 fps=358 q=-0.0 size=N/A time=00:13:51.83 bitrate=N/A speed=14.9x    frame=20140 fps=358 q=-0.0 size=N/A time=00:14:00.00 bitrate=N/A speed=14.9x    frame=20324 fps=358 q=-0.0 size=N/A time=00:14:07.68 bitrate=N/A speed=14.9x    frame=20460 fps=357 q=-0.0 size=N/A time=00:14:13.35 bitrate=N/A speed=14.9x    frame=20643 fps=357 q=-0.0 size=N/A time=00:14:20.98 bitrate=N/A speed=14.9x    frame=20832 fps=357 q=-0.0 size=N/A time=00:14:28.86 bitrate=N/A speed=14.9x    frame=21028 fps=357 q=-0.0 size=N/A time=00:14:37.04 bitrate=N/A speed=14.9x    frame=21221 fps=357 q=-0.0 size=N/A time=00:14:45.09 bitrate=N/A speed=14.9x    frame=21410 fps=358 q=-0.0 size=N/A time=00:14:52.97 bitrate=N/A speed=14.9x    frame=21591 fps=357 q=-0.0 size=N/A time=00:15:00.52 bitrate=N/A speed=14.9x    frame=21790 fps=358 q=-0.0 size=N/A time=00:15:08.82 bitrate=N/A speed=14.9x    frame=21977 fps=358 q=-0.0 size=N/A time=00:15:16.62 bitrate=N/A speed=14.9x    frame=22173 fps=358 q=-0.0 size=N/A time=00:15:24.79 bitrate=N/A speed=14.9x    frame=22365 fps=358 q=-0.0 size=N/A time=00:15:32.80 bitrate=N/A speed=14.9x    frame=22559 fps=358 q=-0.0 size=N/A time=00:15:40.89 bitrate=N/A speed=14.9x    frame=22751 fps=358 q=-0.0 size=N/A time=00:15:48.90 bitrate=N/A speed=14.9x    frame=22924 fps=358 q=-0.0 size=N/A time=00:15:56.12 bitrate=N/A speed=14.9x    frame=23066 fps=357 q=-0.0 size=N/A time=00:16:02.04 bitrate=N/A speed=14.9x    frame=23255 fps=357 q=-0.0 size=N/A time=00:16:09.92 bitrate=N/A speed=14.9x    frame=23452 fps=358 q=-0.0 size=N/A time=00:16:18.14 bitrate=N/A speed=14.9x    frame=23649 fps=358 q=-0.0 size=N/A time=00:16:26.36 bitrate=N/A speed=14.9x    frame=23841 fps=358 q=-0.0 size=N/A time=00:16:34.36 bitrate=N/A speed=14.9x    frame=24028 fps=358 q=-0.0 size=N/A time=00:16:42.16 bitrate=N/A speed=14.9x    frame=24226 fps=358 q=-0.0 size=N/A time=00:16:50.42 bitrate=N/A speed=14.9x    frame=24420 fps=358 q=-0.0 size=N/A time=00:16:58.51 bitrate=N/A speed=14.9x    frame=24609 fps=358 q=-0.0 size=N/A time=00:17:06.40 bitrate=N/A speed=14.9x    frame=24801 fps=359 q=-0.0 size=N/A time=00:17:14.40 bitrate=N/A speed=  15x    frame=24995 fps=359 q=-0.0 size=N/A time=00:17:22.49 bitrate=N/A speed=  15x    frame=25188 fps=359 q=-0.0 size=N/A time=00:17:30.54 bitrate=N/A speed=  15x    frame=25385 fps=359 q=-0.0 size=N/A time=00:17:38.76 bitrate=N/A speed=  15x    frame=25534 fps=358 q=-0.0 size=N/A time=00:17:44.98 bitrate=N/A speed=14.9x    frame=25720 fps=358 q=-0.0 size=N/A time=00:17:52.73 bitrate=N/A speed=14.9x    frame=25908 fps=358 q=-0.0 size=N/A time=00:18:00.57 bitrate=N/A speed=  15x    frame=26096 fps=359 q=-0.0 size=N/A time=00:18:08.42 bitrate=N/A speed=  15x    frame=26298 fps=359 q=-0.0 size=N/A time=00:18:16.84 bitrate=N/A speed=  15x    frame=26491 fps=359 q=-0.0 size=N/A time=00:18:24.89 bitrate=N/A speed=  15x    frame=26675 fps=359 q=-0.0 size=N/A time=00:18:32.56 bitrate=N/A speed=  15x    frame=26878 fps=359 q=-0.0 size=N/A time=00:18:41.03 bitrate=N/A speed=  15x    frame=27053 fps=359 q=-0.0 size=N/A time=00:18:48.33 bitrate=N/A speed=  15x    frame=27248 fps=359 q=-0.0 size=N/A time=00:18:56.46 bitrate=N/A speed=  15x    frame=27441 fps=359 q=-0.0 size=N/A time=00:19:04.51 bitrate=N/A speed=  15x    frame=27626 fps=359 q=-0.0 size=N/A time=00:19:12.23 bitrate=N/A speed=  15x    frame=27810 fps=359 q=-0.0 size=N/A time=00:19:19.90 bitrate=N/A speed=  15x    frame=27997 fps=359 q=-0.0 size=N/A time=00:19:27.70 bitrate=N/A speed=  15x    frame=28128 fps=358 q=-0.0 size=N/A time=00:19:33.17 bitrate=N/A speed=14.9x    frame=28315 fps=358 q=-0.0 size=N/A time=00:19:40.97 bitrate=N/A speed=14.9x    frame=28499 fps=358 q=-0.0 size=N/A time=00:19:48.64 bitrate=N/A speed=14.9x    frame=28698 fps=359 q=-0.0 size=N/A time=00:19:56.94 bitrate=N/A speed=  15x    frame=28866 fps=358 q=-0.0 size=N/A time=00:20:03.95 bitrate=N/A speed=14.9x    frame=29041 fps=358 q=-0.0 size=N/A time=00:20:11.25 bitrate=N/A speed=14.9x    frame=29216 fps=358 q=-0.0 size=N/A time=00:20:18.55 bitrate=N/A speed=14.9x    frame=29373 fps=358 q=-0.0 size=N/A time=00:20:25.09 bitrate=N/A speed=14.9x    frame=29494 fps=357 q=-0.0 size=N/A time=00:20:30.14 bitrate=N/A speed=14.9x    frame=29668 fps=357 q=-0.0 size=N/A time=00:20:37.40 bitrate=N/A speed=14.9x    frame=29855 fps=357 q=-0.0 size=N/A time=00:20:45.20 bitrate=N/A speed=14.9x    frame=30031 fps=357 q=-0.0 size=N/A time=00:20:52.54 bitrate=N/A speed=14.9x    frame=30218 fps=357 q=-0.0 size=N/A time=00:21:00.34 bitrate=N/A speed=14.9x    frame=30409 fps=357 q=-0.0 size=N/A time=00:21:08.30 bitrate=N/A speed=14.9x    frame=30601 fps=357 q=-0.0 size=N/A time=00:21:16.31 bitrate=N/A speed=14.9x    frame=30786 fps=357 q=-0.0 size=N/A time=00:21:24.03 bitrate=N/A speed=14.9x    frame=30983 fps=357 q=-0.0 size=N/A time=00:21:32.24 bitrate=N/A speed=14.9x    frame=31183 fps=357 q=-0.0 size=N/A time=00:21:40.59 bitrate=N/A speed=14.9x    frame=31368 fps=357 q=-0.0 size=N/A time=00:21:48.30 bitrate=N/A speed=14.9x    frame=31560 fps=357 q=-0.0 size=N/A time=00:21:56.31 bitrate=N/A speed=14.9x    frame=31757 fps=358 q=-0.0 size=N/A time=00:22:04.53 bitrate=N/A speed=14.9x    frame=31889 fps=357 q=-0.0 size=N/A time=00:22:10.03 bitrate=N/A speed=14.9x    frame=32072 fps=357 q=-0.0 size=N/A time=00:22:17.66 bitrate=N/A speed=14.9x    frame=32263 fps=357 q=-0.0 size=N/A time=00:22:25.63 bitrate=N/A speed=14.9x    frame=32460 fps=357 q=-0.0 size=N/A time=00:22:33.85 bitrate=N/A speed=14.9x    frame=32652 fps=357 q=-0.0 size=N/A time=00:22:41.86 bitrate=N/A speed=14.9x    frame=32827 fps=357 q=-0.0 size=N/A time=00:22:49.15 bitrate=N/A speed=14.9x    frame=33001 fps=357 q=-0.0 size=N/A time=00:22:56.41 bitrate=N/A speed=14.9x    frame=33191 fps=357 q=-0.0 size=N/A time=00:23:04.34 bitrate=N/A speed=14.9x    frame=33376 fps=357 q=-0.0 size=N/A time=00:23:12.05 bitrate=N/A speed=14.9x    frame=33555 fps=357 q=-0.0 size=N/A time=00:23:19.52 bitrate=N/A speed=14.9x    frame=33727 fps=357 q=-0.0 size=N/A time=00:23:26.69 bitrate=N/A speed=14.9x    frame=33879 fps=357 q=-0.0 size=N/A time=00:23:33.03 bitrate=N/A speed=14.9x    frame=34057 fps=357 q=-0.0 size=N/A time=00:23:40.46 bitrate=N/A speed=14.9x    frame=34221 fps=356 q=-0.0 size=N/A time=00:23:47.30 bitrate=N/A speed=14.9x    frame=34379 fps=356 q=-0.0 size=N/A time=00:23:53.89 bitrate=N/A speed=14.8x    frame=34544 fps=356 q=-0.0 size=N/A time=00:24:00.77 bitrate=N/A speed=14.8x    [Parsed_psnr_16 @ 000001b664e7d380] PSNR y:48.530844 u:50.178885 v:50.222667 average:49.019431 min:37.216705 max:inf
[out#0/null @ 000001b65c328a00] video:14903KiB audio:271276KiB subtitle:0KiB other streams:0KiB global headers:0KiB muxing overhead: unknown
frame=34683 fps=356 q=-0.0 Lsize=N/A time=00:24:06.57 bitrate=N/A speed=14.8x    
